<?xml version="1.0" encoding="utf-8"?>
<!-- Generator: Adobe Illustrator 23.0.2, SVG Export Plug-In . SVG Version: 6.00 Build 0)  -->
<svg version="1.1" id="Layer_1" xmlns="http://www.w3.org/2000/svg" xmlns:xlink="http://www.w3.org/1999/xlink" x="0px" y="0px"
	 viewBox="0 0 512 344.5" style="enable-background:new 0 0 512 344.5;" xml:space="preserve">
<style type="text/css">
	.st0{fill:#E64C3C;}
	.st1{fill:#FFFFFF;}
	.st2{opacity:0.6;fill:#222;}
	.st3{opacity:0.8;fill:#222;}
	.st4{fill:#222;}
</style>
<g transform="translate(0 -1)">
	<path id="Shape" class="st0" d="M359.9,194.6c2.6-0.6,5.4,0,7.5,1.7s3.4,4.2,3.4,6.9V310c-0.2,14.4-9,27.3-22.3,32.8
		c-8.4,3.7,6,2.6-313.1,2.6C15.9,345.2,0.1,329.4,0,310V177.6c0-19.5,15.8-35.3,35.3-35.3h274.6c2.7,0,5.2,1.3,6.9,3.4
		c1.7,2.1,2.3,4.9,1.7,7.5c-2.3,11.5,1.3,23.5,9.6,31.8S348.3,196.9,359.9,194.6L359.9,194.6z"/>
	<g>
		<path class="st1" d="M123.6,310c-4.9,0-8.8-4-8.8-8.8V186.4c0-4.9,4-8.8,8.8-8.8c4.9,0,8.8,4,8.8,8.8v114.8
			C132.4,306,128.5,310,123.6,310z"/>
		<path class="st1" d="M194.2,310h-8.8c-4.1,0-7.7-2.8-8.6-6.8l-26.5-114.8c-1.1-4.8,1.9-9.5,6.6-10.6s9.5,1.9,10.6,6.6l22.3,96.6
			l22.3-96.6c0.7-3.1,3-5.5,6-6.5c3-0.9,6.3-0.2,8.6,2c2.3,2.2,3.3,5.4,2.6,8.4l-26.5,114.8C201.9,307.2,198.3,310,194.2,310z"/>
		<path class="st1" d="M300.1,310H256c-4.9,0-8.8-4-8.8-8.8V186.4c0-4.9,4-8.8,8.8-8.8s8.8,4,8.8,8.8v105.9h35.3
			c4.9,0,8.8,4,8.8,8.8C309,306,305,310,300.1,310z"/>
		<path class="st1" d="M88.3,310H44.1c-4.9,0-8.8-4-8.8-8.8V186.4c0-4.9,4-8.8,8.8-8.8s8.8,4,8.8,8.8v105.9h35.3
			c4.9,0,8.8,4,8.8,8.8C97.1,306,93.2,310,88.3,310z"/>
		<path class="st1" d="M300.1,257H256c-4.9,0-8.8-4-8.8-8.8s4-8.8,8.8-8.8h44.1c4.9,0,8.8,4,8.8,8.8S305,257,300.1,257z"/>
		<path class="st1" d="M300.1,195.2H256c-4.9,0-8.8-4-8.8-8.8s4-8.8,8.8-8.8h44.1c4.9,0,8.8,4,8.8,8.8S305,195.2,300.1,195.2z"/>
	</g>
	<path class="st2" d="M259,79.9c29.8-35.2,76.8-50.9,121.8-40.6s80.5,44.8,92.1,89.4s-2.7,92.1-37,122.9c-5.1,4.1-7.6,10.6-6.3,17.1
		c1.2,6.4,5.9,11.7,12.1,13.6c6.2,1.9,13,0.3,17.7-4.3c44.2-39.6,62.6-100.6,47.7-158C492,62.6,446.4,18.2,388.6,5
		S270.3,11.9,232,57.2c-4.4,4.8-5.8,11.6-3.6,17.7c2.1,6.1,7.4,10.6,13.8,11.6S255,85.1,259,79.9L259,79.9z"/>
	<path class="st3" d="M322.2,116.9c21.2-15.2,50.2-12.7,68.5,5.8s20.5,47.6,5.1,68.6c-4,5.6-4.3,13-0.8,18.9c3,5.1,8.3,8.4,14.2,8.8
		c5.9,0.4,11.6-2.2,15.2-6.9c25.7-35,22.2-83.4-8.4-114.3s-79-34.9-114.2-9.6c-4.9,3.7-7.5,9.6-6.9,15.7c0.6,6.1,4.3,11.4,9.7,14.1
		C310.1,120.9,316.9,120.5,322.2,116.9L322.2,116.9z"/>
	<circle id="Oval" class="st4" cx="353.1" cy="159.9" r="17.7"/>
</g>
</svg>
